<mxfile host="app.diagrams.net" modified="2024-05-07T17:41:30.712Z" agent="Mozilla/5.0 (Windows NT 10.0; Win64; x64) AppleWebKit/537.36 (KHTML, like Gecko) Chrome/121.0.0.0 Safari/537.36 OPR/107.0.0.0" version="24.3.1" etag="SCa_Y_N2tSQnrya_L_N8" type="github">
  <diagram name="PÃ¡gina-1" id="c9ZjZl4gouYc1DpIpKhN">
    <mxGraphModel>
      <root>
        <mxCell id="0" />
        <mxCell id="1" parent="0" />
      </root>
    </mxGraphModel>
  </diagram>
</mxfile>
